<svg width="21" height="19" viewBox="0 0 21 19" fill="none" xmlns="http://www.w3.org/2000/svg">
<path d="M19.8449 0.00118656C19.4795 0.0140104 19.1441 0.206364 18.9507 0.514131L8.59848 16.2615L1.89191 10.4994C1.60387 10.2024 1.17181 10.0912 0.774144 10.2152C0.378628 10.337 0.0841412 10.6704 0.0153558 11.0765C-0.0534296 11.4847 0.112085 11.8951 0.447414 12.1409L8.11698 18.7408C8.35773 18.9438 8.67587 19.0336 8.98755 18.9887C9.30138 18.9417 9.57867 18.7643 9.75064 18.5014L20.8079 1.711C21.0443 1.3669 21.0637 0.922349 20.8595 0.559014C20.6553 0.197815 20.2619 -0.0180487 19.8449 0.00118656Z" fill="#828282"/>
</svg>
