<svg width="20" height="16" viewBox="0 0 20 16" fill="none" xmlns="http://www.w3.org/2000/svg">
<path d="M17.8885 0.283711C15.3819 1.32171 4.6345 5.77351 1.6649 6.98691C-0.326705 7.76411 0.839095 8.49271 0.839095 8.49271C0.839095 8.49271 2.5391 9.07551 3.9963 9.51271C5.4535 9.94991 6.2307 9.46411 6.2307 9.46411L13.0795 4.84951C15.5081 3.19811 14.9253 4.55811 14.3425 5.14091C13.0795 6.40391 10.9909 8.39531 9.2423 9.99831C8.4651 10.6783 8.85369 11.2613 9.1937 11.5527C10.4567 12.6213 13.9053 14.8071 14.0997 14.9529C15.1259 15.6793 17.1443 16.7251 17.4513 14.5157L18.6657 6.88971C19.0543 4.31531 19.4429 1.93511 19.4915 1.25511C19.6371 -0.396289 17.8885 0.283711 17.8885 0.283711Z" fill="#828282"/>
</svg>
