<svg width="20" height="20" viewBox="0 0 20 20" fill="none" xmlns="http://www.w3.org/2000/svg">
<path fill-rule="evenodd" clip-rule="evenodd" d="M19.4942 12.9206V7.10319C19.4942 1.78959 18.2396 0.525189 12.9244 0.525189C-0.0735924 0.441789 0.438407 -0.0868111 0.525807 12.9106C0.525807 18.2242 1.78041 19.4884 7.09561 19.4884H11.5074C17.1546 19.586 19.6362 19.1978 19.4942 12.9206ZM15.839 14.0566H14.4558C13.9322 14.0566 13.7742 13.6318 12.8356 12.6936C12.0156 11.9034 11.6698 11.8046 11.4624 11.8046C11.1758 11.8046 11.0968 11.8836 11.0968 12.2786V13.523C11.0968 13.8588 10.9882 14.0564 10.1088 14.0564C8.64661 14.0564 7.03641 13.1674 5.89021 11.528C4.17121 9.12799 3.70681 7.31059 3.70681 6.94519C3.70681 6.73779 3.78581 6.55019 4.18101 6.55019H5.56421C5.91981 6.55019 6.04821 6.70819 6.18661 7.07359C6.75361 8.93239 8.69601 12.0254 8.72561 10.244V8.20939C8.66641 7.28099 8.17241 7.20199 8.17241 6.86619C8.17241 6.71799 8.31081 6.55019 8.52801 6.55019H10.7014C10.9978 6.55019 11.0966 6.69839 11.0966 7.05379V9.79959C11.1342 10.458 11.5438 10.1988 11.9562 9.76999C12.954 8.66379 13.6554 6.94519 13.6554 6.94519C13.7444 6.73779 13.9024 6.55019 14.258 6.55019H15.6412C16.0562 6.55019 16.145 6.75759 16.0562 7.05399C15.8882 7.86379 14.1988 10.2342 14.1988 10.2442C14.0506 10.4714 13.9914 10.59 14.1988 10.8566C14.597 11.3526 17.4986 13.973 15.839 14.0566Z" fill="#828282"/>
</svg>
